<?xml version="1.0" encoding="UTF-8" standalone="no"?>
<svg
   viewBox="0 0 384 512"
   version="1.1"
   id="svg4"
   sodipodi:docname="btnClose.svg"
   inkscape:export-filename="btnCloseHover.svg"
   inkscape:export-xdpi="96"
   inkscape:export-ydpi="96"
   inkscape:version="1.2.2 (732a01da63, 2022-12-09)"
   xmlns:inkscape="http://www.inkscape.org/namespaces/inkscape"
   xmlns:sodipodi="http://sodipodi.sourceforge.net/DTD/sodipodi-0.dtd"
   xmlns="http://www.w3.org/2000/svg"
   xmlns:svg="http://www.w3.org/2000/svg">
  <defs
     id="defs8" />
  <sodipodi:namedview
     id="namedview6"
     pagecolor="#ffffff"
     bordercolor="#999999"
     borderopacity="1"
     inkscape:showpageshadow="0"
     inkscape:pageopacity="0"
     inkscape:pagecheckerboard="0"
     inkscape:deskcolor="#d1d1d1"
     showgrid="false"
     inkscape:zoom="1.6347656"
     inkscape:cx="147.7276"
     inkscape:cy="256.30586"
     inkscape:window-width="1920"
     inkscape:window-height="1017"
     inkscape:window-x="-8"
     inkscape:window-y="-8"
     inkscape:window-maximized="1"
     inkscape:current-layer="svg4" />
  <!--! Font Awesome Pro 6.4.2 by @fontawesome - https://fontawesome.com License - https://fontawesome.com/license (Commercial License) Copyright 2023 Fonticons, Inc. -->
  <g
     inkscape:groupmode="layer"
     id="layer1"
     inkscape:label="Layer 1"
     style="display:none">
    <rect
       style="display:inline;fill:#cce5e5;fill-opacity:1;stroke:#666666;stroke-width:0;stroke-linecap:round;stroke-miterlimit:20;stroke-dasharray:none"
       id="rect346"
       width="381.70609"
       height="399.44565"
       x="1.2234161"
       y="51.383511"
       rx="69.181526"
       ry="69.181526" />
  </g>
  <path
     d="m 317.33227,169.12761 c 10.32659,-10.3027 10.32659,-27.03429 0,-37.33699 -10.32658,-10.3027 -27.09696,-10.3027 -37.42354,0 l -86.99117,86.87239 -87.07377,-86.78997 c -10.326589,-10.3027 -27.096965,-10.3027 -37.423551,0 -10.326587,10.3027 -10.326587,27.03429 0,37.337 L 155.49402,256 68.502852,342.87238 c -10.326586,10.30271 -10.326586,27.0343 0,37.337 10.326586,10.30271 27.096961,10.30271 37.423548,0 l 86.99116,-86.87238 87.07377,86.78996 c 10.3266,10.3027 27.09697,10.3027 37.42356,0 10.32658,-10.3027 10.32658,-27.03429 0,-37.33699 L 230.34112,256 Z"
     id="path2"
     style="display:inline;fill:#4d4d4d;stroke-width:0.825171" />
</svg>
