<?xml version="1.0" encoding="UTF-8" standalone="no"?>
<svg
   viewBox="0 0 384 512"
   version="1.1"
   id="svg4"
   sodipodi:docname="connectAction.svg"
   inkscape:version="1.2.2 (732a01da63, 2022-12-09)"
   xmlns:inkscape="http://www.inkscape.org/namespaces/inkscape"
   xmlns:sodipodi="http://sodipodi.sourceforge.net/DTD/sodipodi-0.dtd"
   xmlns="http://www.w3.org/2000/svg"
   xmlns:svg="http://www.w3.org/2000/svg">
  <defs
     id="defs8" />
  <sodipodi:namedview
     id="namedview6"
     pagecolor="#ffffff"
     bordercolor="#999999"
     borderopacity="1"
     inkscape:showpageshadow="0"
     inkscape:pageopacity="0"
     inkscape:pagecheckerboard="0"
     inkscape:deskcolor="#d1d1d1"
     showgrid="false"
     inkscape:zoom="1.1559539"
     inkscape:cx="103.81037"
     inkscape:cy="274.2324"
     inkscape:window-width="1920"
     inkscape:window-height="1017"
     inkscape:window-x="-8"
     inkscape:window-y="-8"
     inkscape:window-maximized="1"
     inkscape:current-layer="svg4" />
  <!--! Font Awesome Pro 6.4.2 by @fontawesome - https://fontawesome.com License - https://fontawesome.com/license (Commercial License) Copyright 2023 Fonticons, Inc. -->
  <path
     d="M 115,40 C 100.25,40 88.333333,51.916667 88.333333,66.666667 V 146.66667 H 141.66667 V 66.666667 C 141.66667,51.916667 129.75,40 115,40 Z m 160,0 c -14.74999,0 -26.66667,11.916667 -26.66667,26.666667 v 80.000003 h 53.33334 V 66.666667 C 301.66667,51.916667 289.74999,40 275,40 Z M 61.666667,173.33333 C 46.916667,173.33333 35,185.25001 35,200 c 0,14.74999 11.916667,26.66667 26.666667,26.66667 v 26.66666 c 0,64.5 45.833333,118.33334 106.666663,130.66667 v 56 c 0,14.74999 11.91668,26.66667 26.66667,26.66667 14.74999,0 26.66667,-11.91668 26.66667,-26.66667 V 384 C 282.5,371.66667 328.33333,317.83333 328.33333,253.33333 V 226.66667 C 343.08334,226.66667 355,214.74999 355,200 c 0,-14.74999 -11.91666,-26.66667 -26.66667,-26.66667 z"
     id="path2"
     style="stroke-width:0.833333" />
</svg>
