<?xml version="1.0" encoding="UTF-8" standalone="no"?>
<svg
   viewBox="0 0 576 512"
   version="1.1"
   id="svg135"
   sodipodi:docname="disconnectAction.svg"
   inkscape:version="1.2.2 (732a01da63, 2022-12-09)"
   xmlns:inkscape="http://www.inkscape.org/namespaces/inkscape"
   xmlns:sodipodi="http://sodipodi.sourceforge.net/DTD/sodipodi-0.dtd"
   xmlns="http://www.w3.org/2000/svg"
   xmlns:svg="http://www.w3.org/2000/svg">
  <defs
     id="defs139" />
  <sodipodi:namedview
     id="namedview137"
     pagecolor="#ffffff"
     bordercolor="#999999"
     borderopacity="1"
     inkscape:showpageshadow="0"
     inkscape:pageopacity="0"
     inkscape:pagecheckerboard="0"
     inkscape:deskcolor="#d1d1d1"
     showgrid="false"
     inkscape:zoom="1.1559539"
     inkscape:cx="226.65265"
     inkscape:cy="268.17679"
     inkscape:window-width="1920"
     inkscape:window-height="1017"
     inkscape:window-x="-8"
     inkscape:window-y="-8"
     inkscape:window-maximized="1"
     inkscape:current-layer="svg135" />
  <!--! Font Awesome Pro 6.4.2 by @fontawesome - https://fontawesome.com License - https://fontawesome.com/license (Commercial License) Copyright 2023 Fonticons, Inc. -->
  <path
     d="m 109.67603,20.602305 c -16.075201,0 -29.06249,12.987306 -29.06249,29.062508 V 136.8523 h 58.12498 V 49.664813 c 0,-16.075202 -12.9873,-29.062508 -29.06249,-29.062508 z m 174.37498,0 c -16.07516,0 -29.06249,12.987306 -29.06249,29.062508 V 136.8523 h 58.12501 V 49.664813 c 0,-16.075202 -12.98731,-29.062508 -29.06252,-29.062508 z M 51.55103,165.9148 c -16.075189,0 -29.062495,12.98732 -29.062495,29.06251 0,16.07519 12.987306,29.06249 29.062495,29.06249 v 29.0625 c 0,70.29494 49.95118,128.96486 116.25,142.40625 v 61.03126 c 0,16.07519 12.98732,29.06249 29.0625,29.06249 16.0752,0 29.06248,-12.9873 29.06248,-29.06249 v -61.03126 c 11.17093,-2.2705 21.88771,-5.8125 31.87796,-10.44433 -1.90725,-9.8086 -2.81545,-19.88964 -2.81545,-30.24316 0,-72.92872 48.86133,-134.41406 115.61428,-153.66798 0.45409,-1.99804 0.63573,-4.0869 0.63573,-6.17577 0,-16.07519 -12.9873,-29.06251 -29.06251,-29.06251 z m 363.28125,319.6875 a 130.78125,130.78125 0 1 0 0,-261.5625 130.78125,130.78125 0 1 0 0,261.5625 z m 53.85645,-164.11229 -33.33106,33.33105 33.33106,33.33106 c 5.63086,5.63085 5.63086,14.89452 0,20.52539 -5.63086,5.63086 -14.89454,5.63086 -20.5254,0 l -33.33105,-33.33105 -33.33105,33.33105 c -5.63085,5.63086 -14.89455,5.63086 -20.52539,0 -5.63086,-5.63087 -5.63086,-14.89454 0,-20.52539 l 33.33105,-33.33106 -33.33105,-33.33105 c -5.63086,-5.63086 -5.63086,-14.89455 0,-20.52539 5.63084,-5.63087 14.89454,-5.63087 20.52539,0 l 33.33105,33.33105 33.33105,-33.33105 c 5.63086,-5.63087 14.89454,-5.63087 20.5254,0 5.63086,5.63084 5.63086,14.89453 0,20.52539 z"
     id="path133"
     style="stroke-width:0.908203" />
</svg>
