<?xml version="1.0" encoding="UTF-8" standalone="no"?>
<svg
   viewBox="0 0 576 512"
   version="1.1"
   id="svg4"
   sodipodi:docname="showLocalHost.svg"
   inkscape:version="1.2.2 (732a01da63, 2022-12-09)"
   xmlns:inkscape="http://www.inkscape.org/namespaces/inkscape"
   xmlns:sodipodi="http://sodipodi.sourceforge.net/DTD/sodipodi-0.dtd"
   xmlns="http://www.w3.org/2000/svg"
   xmlns:svg="http://www.w3.org/2000/svg">
  <defs
     id="defs8" />
  <sodipodi:namedview
     id="namedview6"
     pagecolor="#ffffff"
     bordercolor="#999999"
     borderopacity="1"
     inkscape:showpageshadow="0"
     inkscape:pageopacity="0"
     inkscape:pagecheckerboard="0"
     inkscape:deskcolor="#d1d1d1"
     showgrid="false"
     inkscape:zoom="1.1559539"
     inkscape:cx="176.47763"
     inkscape:cy="237.03367"
     inkscape:window-width="1920"
     inkscape:window-height="1017"
     inkscape:window-x="-8"
     inkscape:window-y="-8"
     inkscape:window-maximized="1"
     inkscape:current-layer="svg4" />
  <!--! Font Awesome Pro 6.4.2 by @fontawesome - https://fontawesome.com License - https://fontawesome.com/license (Commercial License) Copyright 2023 Fonticons, Inc. -->
  <rect
     style="display:inline;fill:#cce5e5;fill-opacity:1;stroke:#666666;stroke-width:0;stroke-linecap:round;stroke-miterlimit:20;stroke-dasharray:none"
     id="rect346"
     width="507.14359"
     height="510.17667"
     x="28.446392"
     y="0.97725576"
     rx="105.00967"
     ry="105.00967" />
  <path
     d="m 341.43735,45.01052 c -9.74773,-9.228955 -24.72593,-9.228955 -34.3944,0 L 142.20338,201.82109 c -7.44949,7.0238 -10.06474,17.96786 -6.73624,27.76852 69.02657,20.66305 123.31267,76.93519 142.88739,148.31666 h 147.32535 c 21.00121,0 38.0399,-17.55952 38.0399,-39.20265 v -91.55449 h 25.35994 c 10.46098,0 19.81245,-6.61545 23.61645,-16.57945 3.80397,-9.964 1.26798,-21.39811 -6.41924,-28.74859 z m -55.2371,162.93597 c 0,-7.18714 5.70598,-13.06754 12.67996,-13.06754 h 50.71988 c 6.97398,0 12.67997,5.8804 12.67997,13.06754 v 52.27019 c 0,7.18715 -5.70599,13.06755 -12.67997,13.06755 h -50.71988 c -6.97398,0 -12.67996,-5.8804 -12.67996,-13.06755 z M 76.980797,247.14913 c -10.540223,0 -19.01995,8.73892 -19.01995,19.60132 0,10.8624 8.479727,19.60133 19.01995,19.60133 80.517783,0 145.819623,67.29786 145.819623,150.27678 0,10.8624 8.47972,19.60131 19.01994,19.60131 10.54022,0 19.01996,-8.73891 19.01996,-19.60131 0,-104.62205 -82.34054,-189.47943 -183.859523,-189.47943 z m 6.339985,209.08074 a 25.359937,26.135095 0 1 0 0,-52.27018 25.359937,26.135095 0 1 0 0,52.27018 z M 57.960847,345.15573 c 0,10.8624 8.479727,19.60132 19.01995,19.60132 38.515403,0 69.739823,32.17883 69.739823,71.87151 0,10.8624 8.47972,19.60131 19.01994,19.60131 10.54023,0 19.01996,-8.73891 19.01996,-19.60131 0,-61.33581 -48.26313,-111.07415 -107.779723,-111.07415 -10.540223,0 -19.01995,8.73892 -19.01995,19.60132 z"
     id="path2"
     style="stroke-width:0.804519" />
</svg>
