<?xml version="1.0" encoding="UTF-8" standalone="no"?>
<svg
   viewBox="0 0 440 440"
   version="1.1"
   id="svg4"
   sodipodi:docname="FlowLink.svg"
   inkscape:export-filename="FlowLink.png"
   inkscape:export-xdpi="96"
   inkscape:export-ydpi="96"
   inkscape:version="1.2.2 (732a01da63, 2022-12-09)"
   width="440"
   height="440"
   xmlns:inkscape="http://www.inkscape.org/namespaces/inkscape"
   xmlns:sodipodi="http://sodipodi.sourceforge.net/DTD/sodipodi-0.dtd"
   xmlns="http://www.w3.org/2000/svg"
   xmlns:svg="http://www.w3.org/2000/svg">
  <defs
     id="defs8" />
  <sodipodi:namedview
     id="namedview6"
     pagecolor="#ffffff"
     bordercolor="#999999"
     borderopacity="1"
     inkscape:showpageshadow="0"
     inkscape:pageopacity="0"
     inkscape:pagecheckerboard="0"
     inkscape:deskcolor="#d1d1d1"
     showgrid="false"
     inkscape:zoom="1.1559539"
     inkscape:cx="125.87008"
     inkscape:cy="212.81126"
     inkscape:window-width="1920"
     inkscape:window-height="1017"
     inkscape:window-x="-8"
     inkscape:window-y="-8"
     inkscape:window-maximized="1"
     inkscape:current-layer="svg4" />
  <!--! Font Awesome Pro 6.4.2 by @fontawesome - https://fontawesome.com License - https://fontawesome.com/license (Commercial License) Copyright 2023 Fonticons, Inc. -->
  <g
     inkscape:groupmode="layer"
     id="layer1"
     inkscape:label="Layer 1">
    <rect
       style="fill:#f9f9f9;stroke:#666666;stroke-width:0;stroke-linecap:round;stroke-miterlimit:20"
       id="rect344"
       width="437.73373"
       height="438.59885"
       x="0.86508727"
       y="0.86508328"
       rx="110.01012"
       ry="108.21117" />
  </g>
  <path
     d="m 345.4855,245.07903 2.0278,1.80903 L 219.83681,134.7949 c -2.62862,-2.34505 -7.28507,-2.47905 -10.36432,-0.335 L 166.438,163.67246 c -3.15436,2.14404 -3.45478,5.82911 -0.82614,8.17415 l 51.1457,43.08184 c 2.70373,2.34504 7.43527,2.47904 10.51453,0.335 l 0.0751,-0.067 c 3.07926,-2.14403 7.81079,-2.01003 10.51454,0.33501 l 63.0872,54.47205 c 2.70374,2.34504 2.40332,6.03012 -0.67594,8.17416 l -69.99675,49.58095 c -3.15436,2.21105 -7.8859,2.07704 -10.66474,-0.268 L 105.52881,228.66371 c -2.62863,-2.34505 -7.285072,-2.47905 -10.43943,-0.335 l -34.397548,23.38345 c -3.154361,2.14404 -3.52988,5.82911 -0.901247,8.17415 L 216.53225,391.27585 c 0,0 5.55768,4.55609 12.99296,-0.53602 L 378.23077,280.92472 c 3.00415,-2.14404 3.30456,-5.82912 0.52572,-8.17416 z M 386.41708,189.19995 228.32354,50.775286 c -1.12655,-0.804015 -6.0083,-3.685071 -12.24191,0.737014 L 60.766935,160.12139 c -3.15436,2.14404 -3.604983,5.82912 -0.901245,8.17416 l 31.768914,27.93954 128.953246,110.61913 c 2.77884,2.34505 7.58549,2.47905 10.73985,0.26801 l 37.70212,-25.99651 -0.22532,-0.201 5.78299,-4.02008 c 3.15437,-2.14404 3.45478,-5.82911 0.67594,-8.17416 l -42.88427,-36.44869 c -2.70375,-2.34505 -7.51039,-2.47906 -10.66475,-0.33502 l -0.0751,0.067 c -3.15436,2.14404 -7.8859,2.07703 -10.66474,-0.26801 l -71.04824,-61.5072 c -2.70374,-2.34505 -2.32822,-5.96312 0.82614,-8.17416 l 69.24572,-47.90593 c 3.07926,-2.14404 7.73569,-2.01004 10.43943,0.33501 l 120.46652,106.53205 c 2.77884,2.34505 7.51038,2.47906 10.58964,0.33501 l 34.39754,-23.98646 c 3.07926,-2.14404 3.30457,-5.82911 0.52573,-8.17416 z"
     id="path2"
     style="stroke-width:0.709369" />
</svg>
